<svg xmlns="http://www.w3.org/2000/svg" viewBox="0 0 27.94 27.94"><defs><style>.cls-1{fill:#0037ff;}</style></defs><g id="Layer_2" data-name="Layer 2"><g id="Layer_1-2" data-name="Layer 1"><path class="cls-1" d="M27.39,20.89l-7.81-7.81L14.5,18.16l-4.73-4.7,5.09-5.1L7.05.55A1.84,1.84,0,0,0,5.7,0,1.87,1.87,0,0,0,4.37.59a16.26,16.26,0,0,0,23,23,1.84,1.84,0,0,0,.59-1.32A1.87,1.87,0,0,0,27.39,20.89Zm-20.73.39A13.56,13.56,0,0,1,5.77,3l5.34,5.34L7.89,11.58a2.64,2.64,0,0,0,0,3.73l4.74,4.74a2.64,2.64,0,0,0,3.73,0l3.22-3.22,5.34,5.34A13.56,13.56,0,0,1,6.66,21.28Z"/></g></g></svg>