<?xml version="1.0" encoding="utf-8"?>
<!-- Generator: Adobe Illustrator 24.3.0, SVG Export Plug-In . SVG Version: 6.00 Build 0)  -->
<svg version="1.1" id="type" xmlns="http://www.w3.org/2000/svg" xmlns:xlink="http://www.w3.org/1999/xlink" x="0px" y="0px"
	 viewBox="0 0 204 204" style="enable-background:new 0 0 204 204;" xml:space="preserve">
<style type="text/css">
	.st0{fill:#FFFFFF;}
	.st1{fill:#F8BF5D;}
</style>
<circle class="st0" cx="102" cy="102" r="101.1"/>
<path class="st1" d="M102,1.8c55.3,0,100.2,44.8,100.2,100.2S157.3,202.2,102,202.2S1.8,157.3,1.8,102c0,0,0,0,0,0
	C1.9,46.7,46.7,1.9,102,1.8 M102,0C45.7,0,0,45.7,0,102s45.7,102,102,102s102-45.7,102-102S158.3,0,102,0z"/>
<path class="st1" d="M107.6,124.6l-8,32.1c-0.2,0.4-0.6,0.6-1.1,0.5c-0.3-0.1-0.6-0.5-0.5-0.8l-1.8-33l-16.7,10.2
	c-0.4,0.2-0.9,0.1-1.1-0.4c-0.2-0.3-0.1-0.7,0.1-0.9l8.1-12.7l-39.3,4.1c-0.4,0.1-0.8-0.2-0.9-0.6c-0.1-0.4,0.1-0.9,0.5-1l29.9-12.3
	l-28.1-4.6c-0.4-0.1-0.7-0.5-0.6-0.9c0.1-0.4,0.4-0.7,0.9-0.7l36.7-2.2L67,64.9c-0.2-0.4-0.1-0.8,0.2-1.1c0.3-0.3,0.8-0.2,1.1,0.1
	L98.2,93l7.8-50c0-0.5,0.4-0.8,0.9-0.8c0.5,0,0.8,0.4,0.8,0.9l1.7,50.2l10.3-11c0.3-0.3,0.8-0.4,1.2,0c0.2,0.2,0.3,0.5,0.2,0.8
	l-0.2,11.7l30.5-13.9c0.4-0.2,0.8,0,1,0.3c0.2,0.4,0.2,0.8-0.2,1.1l-30.8,24.6l21.5,11.8c0.4,0.2,0.5,0.6,0.4,1
	c-0.1,0.4-0.5,0.6-0.9,0.6l-22.3-0.6l23.1,34.3c28.5-22.6,33.2-64.1,10.6-92.5S89.6,28.3,61.1,50.9S27.9,115,50.6,143.4
	c21.2,26.7,59.3,32.8,87.8,14L107.6,124.6z"/>
<path d="M32.5,134.2l-1.3,1c1.4,0.2,2.6,1,3.3,2.3c0.6,1.1,0.8,2.5,0.4,3.7c-0.5,1.8-1.9,2.9-4,4c-1.8,1-3.6,1.6-5.5,1
	c-2.6-0.9-4.1-3.8-3.3-6.4c0.3-0.9,0.9-1.7,1.7-2.2l0.8,1.5c-0.5,0.3-0.8,0.7-1,1.2c-0.3,0.9-0.2,1.9,0.3,2.7c0.4,0.8,1.1,1.4,2,1.6
	c1.5,0.4,3.1-0.3,4.3-0.9s2.8-1.6,3.2-3c0.3-0.8,0.2-1.7-0.3-2.5c-0.4-0.8-1.1-1.4-1.9-1.7c-1.2-0.3-2.4-0.1-3.5,0.6l1.6,3.1
	l-1.4,0.7l-2.3-4.4l6.2-3.3L32.5,134.2z"/>
<path d="M29.2,124.9c0.9,2.8-0.3,5.1-3.4,6l-7.9,2.5l-0.5-1.6l7.9-2.5c2-0.6,3-1.9,2.4-4s-2.2-2.6-4.2-1.9l-7.9,2.5l-0.5-1.6
	l7.8-2.5C26.1,120.9,28.4,122.1,29.2,124.9z"/>
<path d="M26.7,115.6l-12.8,2.2l-0.3-1.7l12.8-2.1L26.7,115.6z"/>
<path d="M24.1,100.8c0.9,0.9,1.4,2.1,1.4,3.4l0.1,4.5l-13,0.4l-0.1-4.5c-0.1-1.3,0.4-2.5,1.2-3.4c1.2-1.5,3.2-1.8,5.1-1.8
	S22.7,99.4,24.1,100.8z M14.8,102.2c-0.6,0.6-0.9,1.5-0.8,2.3l0.1,2.9l10-0.3l-0.1-2.9c0-0.9-0.4-1.7-1-2.3c-1.1-1-2.8-1-4.1-1
	S15.9,101.1,14.8,102.2z"/>
<path d="M25.7,95.3l-12.9-1.8L14,85l1.5,0.2l-1,7l3.9,0.5l0.8-6.2l1.5,0.2L20,92.9l4.5,0.6l1-7l1.5,0.2L25.7,95.3z"/>
<path d="M29.1,75.2c0.5,1.2,0.6,2.6,0.1,3.9c-0.3,1.3-1.2,2.4-2.3,3.2c-1,0.6-2.3,0.7-3.4,0.4l0.5-1.6c0.8,0.2,1.6,0.1,2.2-0.3
	c0.8-0.5,1.3-1.3,1.5-2.1c0.3-0.8,0.3-1.7,0-2.5c-0.2-0.5-0.7-0.9-1.3-1.1c-1-0.3-2,0.1-2.6,1.5L23,78.3c-0.9,1.8-2.4,2.9-4.3,2.3
	c-0.9-0.3-1.7-1-2.1-1.9c-0.5-1.1-0.6-2.4-0.2-3.6c0.3-1.2,1.1-2.2,2.2-2.8c0.9-0.5,2-0.6,3-0.4L21,73.6c-0.6-0.2-1.2-0.1-1.8,0.1
	c-1.5,0.9-2.1,2.8-1.4,4.4c0.3,0.5,0.7,0.8,1.2,0.9c1,0.3,2-0.3,2.3-1.3c0.3-0.7,0.6-1.3,1-2c1-2,2.6-3,4.6-2.4
	C28,73.6,28.7,74.3,29.1,75.2z"/>
<path d="M23.1,63l10.3,5l-0.7,1.5l-10.4-5L20.7,68l-1.4-0.7l4.1-8.5l1.4,0.7L23.1,63z"/>
<path d="M40.9,55.8l-3.1-0.9l-3.2,4.7l2,2.6l-0.9,1.4l-8.2-11.1l1.1-1.6l13.3,3.5L40.9,55.8z M29.3,52.6l4.3,5.7l2.6-3.8L29.3,52.6z
	"/>
<path d="M49.3,46.4l-5.6-2L41.2,47l3.9,3.8L44,52l-9.4-9l3.5-3.7c0.8-0.9,1.9-1.5,3.1-1.6c1,0,1.9,0.4,2.6,1.1
	c0.7,0.6,1.1,1.5,1.1,2.5c0,0.6-0.1,1.2-0.4,1.8l5.9,2.1L49.3,46.4z M39.2,40.3l-2.4,2.5l3.3,3.2l2.4-2.5c1.1-1.1,1.4-2.3,0.2-3.5
	S40.3,39.2,39.2,40.3z"/>
<path d="M66.2,34.2l-1-1.2c-0.1,1.4-0.9,2.7-2.1,3.4c-1.1,0.7-2.4,0.9-3.7,0.6c-1.8-0.4-3-1.8-4.2-3.8c-1.1-1.8-1.8-3.6-1.3-5.5
	c0.3-1.3,1.2-2.3,2.3-3c1.2-0.7,2.6-1,4-0.6c0.9,0.2,1.7,0.8,2.3,1.6L61,26.6c-0.3-0.4-0.7-0.8-1.2-0.9c-0.9-0.3-1.9-0.1-2.7,0.4
	c-0.8,0.5-1.3,1.2-1.5,2.1c-0.3,1.5,0.5,3,1.2,4.2s1.7,2.7,3.2,3.1c0.8,0.2,1.7,0.1,2.5-0.4c0.8-0.4,1.3-1.2,1.6-2
	c0.2-1.2,0-2.4-0.7-3.4l-3,1.8l-0.8-1.3l4.3-2.5l3.6,6L66.2,34.2z"/>
<path d="M78,28c-1.2,2.4-4.1,3.5-6.6,2.5c-1.8-0.8-2.7-2.5-3.4-4.4s-1.2-3.8-0.3-5.6c1.2-2.5,4.1-3.6,6.6-2.5
	c1.8,0.8,2.7,2.5,3.4,4.4S78.9,26.3,78,28z M73.6,19.5c-1.7-0.8-3.7,0-4.4,1.7c-0.6,1.4,0,3.1,0.4,4.4s1.2,2.9,2.5,3.6
	c0.8,0.4,1.7,0.4,2.6,0.1c0.8-0.3,1.5-0.9,1.9-1.8c0.6-1.4,0-3.1-0.4-4.3S75,20.1,73.6,19.5z"/>
<path d="M83.9,27.6l-2.5-12.8l1.6-0.3l2.2,11.3l6.1-1.2l0.3,1.5L83.9,27.6z"/>
<path d="M102.8,24.1c-0.9,0.9-2.1,1.4-3.4,1.4l-4.5,0.2l-0.5-13l4.5-0.2c1.3-0.1,2.5,0.4,3.4,1.2c1.5,1.3,1.8,3.2,1.9,5.1
	S104.2,22.7,102.8,24.1z M101.4,14.9c-0.6-0.6-1.5-0.9-2.4-0.9l-2.9,0.1l0.4,10l2.9-0.1c0.9,0,1.7-0.4,2.3-1c1-1.1,1-2.8,1-4.1
	S102.4,15.9,101.4,14.9z"/>
<path d="M120.3,15.9l-2.3,11.3l-1.6-0.3l2.3-11.3l-3.8-0.8l0.3-1.5l9.2,1.9l-0.3,1.5L120.3,15.9z"/>
<path d="M131.9,31.5l-0.4-5.9l-3.4-1.3l-1.9,5.1l-1.5-0.6l4.5-12.2l4.8,1.8c1.2,0.3,2.2,1.1,2.7,2.2c0.4,0.9,0.4,1.9,0,2.8
	c-0.3,0.9-1,1.7-1.8,2.1c-0.6,0.2-1.2,0.4-1.8,0.3l0.4,6.3L131.9,31.5z M133.4,19.8l-3.3-1.2l-1.6,4.3l3.3,1.2
	c1.4,0.5,2.7,0.3,3.3-1.2S134.9,20.3,133.4,19.8z"/>
<path d="M144.2,38.1l0.6-3.2L140,32l-2.5,2.1l-1.4-0.8l10.6-8.9l1.6,1L145.7,39L144.2,38.1z M146.6,26.3l-5.4,4.6l4,2.4L146.6,26.3z
	"/>
<path d="M154.2,46l2-12.1l-6.8,7.9l-1.2-1l8.5-9.9l1.4,1.2l-2,12.1l6.9-8l1.2,1l-8.5,9.9L154.2,46z"/>
<path d="M164.6,56.1c-1.3-0.2-2.5-0.9-3.3-2c-0.9-1-1.4-2.3-1.4-3.7c0.1-1.2,0.6-2.3,1.5-3.1l1.1,1.3c-0.6,0.5-0.9,1.2-1,2
	c0,0.9,0.4,1.8,1,2.5c0.5,0.7,1.3,1.2,2.1,1.4c0.6,0.1,1.2-0.1,1.6-0.5c0.8-0.6,1-1.7,0.2-3l-1.1-1.8c-1-1.7-1.1-3.6,0.5-4.9
	c0.8-0.6,1.8-0.9,2.7-0.7c2.5,0.4,4.4,2.7,4.3,5.2c-0.1,1.1-0.6,2-1.4,2.7l-1.1-1.3c0.4-0.4,0.7-0.9,0.9-1.5
	c0.1-1.8-1.2-3.3-2.9-3.6c-0.5,0-1,0.1-1.4,0.5c-0.7,0.7-0.8,1.9-0.2,2.7c0.4,0.6,0.7,1.3,1.1,1.9c1.1,1.9,1,3.8-0.6,5.1
	C166.6,56,165.6,56.2,164.6,56.1z"/>
<path d="M175.9,64.8c-1.1-0.4-2-1.2-2.5-2.2l-1.6-2.8l-4.4,2.5l-0.8-1.4l11.4-6.4l2.4,4.2c0.7,1,0.9,2.3,0.6,3.5
	c-0.3,1-1,1.8-1.9,2.2C178.2,64.9,177,65.1,175.9,64.8z M179,59.3l-1.6-2.7l-4.3,2.5l1.6,2.8c0.9,1.5,2,1.9,3.5,1
	S179.8,60.8,179,59.3z"/>
<path d="M174.9,78.6l2.5-2.1l-2-5.3l-3.3,0.1l-0.6-1.6l13.8-0.3l0.7,1.8l-10.6,8.9L174.9,78.6z M184.2,70.9l-7.1,0.2l1.6,4.3
	L184.2,70.9z"/>
<path d="M177.8,91.1l4.9-3.4l-0.7-3.5l-5.3,1l-0.3-1.6l12.8-2.4l0.9,5c0.3,1.2,0.1,2.4-0.5,3.5c-0.6,0.8-1.4,1.3-2.4,1.5
	c-0.9,0.2-1.9,0-2.7-0.5c-0.5-0.4-0.9-0.8-1.2-1.4l-5.1,3.6L177.8,91.1z M188.6,86.4L188,83l-4.5,0.8l0.6,3.4
	c0.3,1.5,1.1,2.5,2.7,2.2S188.9,87.9,188.6,86.4z"/>
<path d="M178.4,96.7l13-0.2l0.2,8.7h-1.5l-0.1-7l-4,0.1l0.1,6.2h-1.5l-0.1-6.2l-4.5,0.1l0.1,7.1h-1.5L178.4,96.7z"/>
<path d="M177.1,117.1l11.3-4.7l-10.3-1.7l0.2-1.6l12.8,2.1l-0.3,1.8l-11.4,4.6l10.4,1.7l-0.2,1.6l-12.8-2L177.1,117.1z"/>
<path d="M174,131.3c-1.1-2.5-0.1-5.4,2.3-6.6c1.8-0.9,3.6-0.5,5.6,0.2s3.7,1.5,4.5,3.3c0.5,1.2,0.6,2.6,0.1,3.8
	c-0.4,1.2-1.3,2.2-2.4,2.8c-1,0.5-2.2,0.6-3.2,0.2l0.6-1.6c0.7,0.2,1.4,0.2,2-0.1c0.8-0.4,1.4-1.1,1.7-1.9c0.3-0.8,0.2-1.8-0.1-2.6
	c-0.7-1.4-2.3-2-3.6-2.4s-3-1-4.4-0.3c-0.8,0.4-1.4,1.1-1.7,1.9c-0.3,0.8-0.3,1.8,0.1,2.6c0.3,0.6,0.9,1.1,1.5,1.3l-0.6,1.6
	C175.4,133.1,174.5,132.3,174,131.3z"/>
<path d="M173.6,141.6l-4.6-2.5l0.8-1.4l4.6,2.5l8.9-0.2l-0.9,1.6l-7.1,0.1l3.8,5.9l-0.8,1.5L173.6,141.6z"/>
<path d="M79,188.7l0.4-1.8l6.1-4.8c0.5-0.4,0.8-0.9,1-1.5c0.2-0.8-0.2-1.6-1-1.9c-0.1,0-0.1,0-0.2,0c-0.9-0.2-1.8,0.4-2,1.3
	c0,0.1,0,0.1,0,0.2l-2.3-0.5c0.3-2,2.2-3.4,4.3-3c0.2,0,0.4,0.1,0.5,0.1c2,0.2,3.4,2.1,3.1,4c0,0.1,0,0.2-0.1,0.3
	c-0.3,1.1-1,2.1-2,2.8l-4.3,3.4l5,1.1l-0.4,2L79,188.7z"/>
<path d="M99.5,190.7c-0.8,0.7-1.9,1.1-3,1c-1.1,0-2.2-0.5-2.9-1.3c-1.2-1.3-1.3-3.5-1.2-5.6s0.5-4.2,1.9-5.4
	c1.8-1.4,4.3-1.3,5.9,0.4c1.2,1.4,1.3,3.5,1.2,5.6S100.9,189.5,99.5,190.7z M97.2,180.5c-2.4-0.1-2.3,2.7-2.4,4.4s-0.5,4.5,1.9,4.6
	s2.3-2.7,2.4-4.4S99.5,180.7,97.2,180.5z"/>
<path d="M105.9,191.6l-0.2-1.8l4.4-6.3c0.4-0.5,0.5-1.1,0.5-1.7c0-0.8-0.7-1.5-1.5-1.5c-0.1,0-0.2,0-0.2,0c-0.9,0.1-1.6,0.9-1.6,1.8
	c0,0.1,0,0.1,0,0.2l-2.3,0.2c-0.3-2,1.1-3.9,3.2-4.2c0.2,0,0.4,0,0.6,0c2-0.3,3.8,1,4.2,2.9c0,0.1,0,0.2,0,0.3
	c0,1.2-0.4,2.3-1.1,3.2l-3.1,4.5l5.1-0.4l0.2,2.1L105.9,191.6z"/>
<path d="M122.1,189.3l-2.3-9.8l-2.3,2.6l-0.6-2.4l2.6-2.9l1.9-0.4l2.9,12.4L122.1,189.3z"/>
</svg>
