<svg xmlns="http://www.w3.org/2000/svg" viewBox="0 0 22.17 28.92"><defs><style>.cls-1{fill:#0037ff;}</style></defs><g id="Layer_2" data-name="Layer 2"><g id="Layer_1-2" data-name="Layer 1"><path class="cls-1" d="M11.08,0A11.09,11.09,0,0,0,0,11.08c0,5.75,9.08,15.68,10.11,16.8l1,1,1-1c1-1.12,10.11-11,10.11-16.8A11.09,11.09,0,0,0,11.08,0Zm0,25c-3-3.44-8.43-10.35-8.43-13.91a8.43,8.43,0,0,1,16.86,0C19.51,14.64,14.11,21.55,11.08,25Z"/><path class="cls-1" d="M11.08,5.42a5.2,5.2,0,1,0,5.2,5.2A5.2,5.2,0,0,0,11.08,5.42Zm0,7.73a2.54,2.54,0,1,1,2.54-2.53A2.53,2.53,0,0,1,11.08,13.15Z"/></g></g></svg>